Coordinates
version=1
nRows=5
nColumns=40
inDegrees=yes

Units are S.I. units (second, meters, Newtons, ...)
Angles are in degrees.

endheader
time	pelvis_tilt	pelvis_list	pelvis_rotation	pelvis_tx	pelvis_ty	pelvis_tz	hip_flexion_r	hip_adduction_r	hip_rotation_r	knee_angle_r	knee_angle_r_beta	ankle_angle_r	subtalar_angle_r	mtp_angle_r	hip_flexion_l	hip_adduction_l	hip_rotation_l	knee_angle_l	knee_angle_l_beta	ankle_angle_l	subtalar_angle_l	mtp_angle_l	lumbar_extension	lumbar_bending	lumbar_rotation	arm_flex_r	arm_add_r	arm_rot_r	elbow_flex_r	pro_sup_r	wrist_flex_r	wrist_dev_r	arm_flex_l	arm_add_l	arm_rot_l	elbow_flex_l	pro_sup_l	wrist_flex_l	wrist_dev_l
      9.34000000	     -1.60625029	      3.40153618	     -5.41503588	      0.95047835	      0.93378133	      0.40414862	     25.36482075	     -6.77067616	    -15.33646823	      9.11291309	      9.11291309	      1.84796297	     14.66953547	      7.86524454	     -7.95684900	      7.89041890	    -18.90273077	      2.46778795	      2.46778795	     21.02541658	      1.42526420	     17.67105352	    -11.31420392	     -5.36318855	      5.69694465	    -13.37554222	    -13.04627099	     -9.49761352	     25.68223690	     46.85024555	      0.00000000	      0.00000000	     14.04002980	    -12.46884438	    -10.61673768	     84.79622914	     47.80799491	      0.00000000	      0.00000000
      9.35285714	     -1.54146640	      3.68450508	     -5.51998233	      0.95289535	      0.93243180	      0.40521057	     24.57131918	     -6.72598523	    -15.63313817	      8.30499526	      8.30499526	      1.33937918	     14.95923581	      6.94733774	     -8.77079962	      8.20515741	    -19.06862903	      2.41980695	      2.41980695	     22.10339545	      1.87864514	     19.71422962	    -11.08543398	     -5.70355412	      5.63453744	    -13.45131243	    -13.13658276	     -9.21751576	     26.60313287	     46.76699882	      0.00000000	      0.00000000	     13.75335872	    -12.45588333	    -10.61201899	     85.67942958	     47.84412380	      0.00000000	      0.00000000
      9.36571429	     -1.64073510	      3.86015502	     -5.51161271	      0.95503692	      0.93081445	      0.40633450	     24.18473446	     -6.71725512	    -15.77931030	      8.30810457	      8.30810457	      1.18735806	     14.85694857	      6.92657530	     -9.31746873	      8.34065100	    -18.94190200	      2.48717612	      2.48717612	     22.45995687	      1.92501583	     19.65960262	    -10.67697898	     -5.88703108	      5.67358508	    -13.24074376	    -13.14950191	     -9.21008030	     26.72872314	     46.76227001	      0.00000000	      0.00000000	     13.71797391	    -12.33812303	    -10.54265082	     85.72459649	     47.84087679	      0.00000000	      0.00000000
      9.37857143	     -1.50542259	      3.92963121	     -5.39134984	      0.95735275	      0.92972420	      0.40763988	     23.19764127	     -6.56979745	    -15.61512508	      7.85127260	      7.85127260	     -0.32831880	     14.29553660	      3.80131404	    -10.16545388	      8.33107302	    -18.91858992	      2.55539208	      2.55539208	     23.48407443	      2.30433549	     21.66604214	    -10.62838554	     -6.00151238	      5.10871215	    -12.99205802	    -13.21888503	     -9.12656625	     28.27606657	     46.67478490	      0.00000000	      0.00000000	     13.02127074	    -12.75538016	    -10.14804861	     86.68552086	     47.84491947	      0.00000000	      0.00000000
      9.39142857	     -1.60057968	      4.02683828	     -5.17880806	      0.95927422	      0.92817206	      0.40888140	     22.84781282	     -6.58661182	    -15.27453302	      8.20008157	      8.20008157	     -2.15601282	     13.20224484	     -0.97412845	    -10.58941680	      8.26882812	    -18.49407524	      2.88610836	      2.88610836	     24.19261899	      2.09991478	     22.70731191	    -10.35111978	     -6.09172882	      5.14986280	    -12.91876123	    -13.28138681	     -8.59053460	     29.44602477	     46.56053805	      0.00000000	      0.00000000	     13.01798262	    -12.42169908	    -10.07783635	     86.52381275	     47.86276550	      0.00000000	      0.00000000
